# xmcd
#
# Track frame offsets: 
#        150
#        9115
#        25719
#        36600
#        58682
#        75567
#        92767
#        113157
#        128792
#        155422
#        168705
#        203232
#        216187
#        244555
#        261415
#        276625
#        296937
#        309352
#
# Disc length: 4334 seconds
#
# Revision: 4
# Processed by: cddbd v1.5.2PL0 Copyright (c) Steve Scherf et al.
# Submitted via: ExactAudioCopyFreeDBPlugin 1.0
#
DISCID=0610ec12
DTITLE=Brownie McGhee And Sonny Terry - A Long Way From Home
DYEAR=1998
DGENRE=Blues
TTITLE0=A Long Way From Home
TTITLE1=Big Question
TTITLE2=Rock Island Line
TTITLE3=Night and Day
TTITLE4=You Just Usin' Me For A Convenience
TTITLE5=Hole In The Wall
TTITLE6=Life Is A Gamble
TTITLE7=Don't Mistreat Me
TTITLE8=Packin' Up, Gettin' Ready
TTITLE9=Wailin' and Whoopin'
TTITLE10=B.M. Special
TTITLE11=Poor Man Blues
TTITLE12=Tell Me Why
TTITLE13=Beggin' You
TTITLE14=Don't Wait For Me
TTITLE15=I'm In Love With You, Baby
TTITLE16=When I Was Drinkin'
TTITLE17=I Couldn't Believe My Eyes
EXTD=YEAR: 1998
EXTT0=
EXTT1=
EXTT2=
EXTT3=
EXTT4=
EXTT5=
EXTT6=
EXTT7=
EXTT8=
EXTT9=
EXTT10=
EXTT11=
EXTT12=
EXTT13=
EXTT14=
EXTT15=
EXTT16=
EXTT17=
PLAYORDER=
